HIERARCHY
ROOT hip
{
	OFFSET 0.000000 0.000000 0.000000
	CHANNELS 6 Xposition Yposition Zposition Zrotation Yrotation Xrotation 
	JOINT lhipjoint
	{
		OFFSET 0.000000 0.000000 0.000000
		CHANNELS 3 Zrotation Yrotation Xrotation
		JOINT lfemur
		{
			OFFSET 1.363060 -1.794630 0.839290
			CHANNELS 3 Zrotation Yrotation Xrotation
			JOINT ltibia
			{
				OFFSET 2.448110 -6.726130 0.000000
				CHANNELS 3 Zrotation Yrotation Xrotation
				JOINT lfoot
				{
					OFFSET 2.562200 -7.039590 0.000000
					CHANNELS 3 Zrotation Yrotation Xrotation
					JOINT ltoes
					{
						OFFSET 0.157640 -0.433110 2.322550
						CHANNELS 3 Zrotation Yrotation Xrotation
						End Site
						{
							OFFSET 0.000000 0.000000 0.000000
						}
					}
				}
			}
		}
	}
	JOINT rhipjoint
	{
		OFFSET 0.000000 0.000000 0.000000
		CHANNELS 3 Zrotation Yrotation Xrotation
		JOINT rfemur
		{
			OFFSET -1.305520 -1.794630 0.839290
			CHANNELS 3 Zrotation Yrotation Xrotation
			JOINT rtibia
			{
				OFFSET -2.542530 -6.985550 0.000000
				CHANNELS 3 Zrotation Yrotation Xrotation
				JOINT rfoot
				{
					OFFSET -2.568260 -7.056230 0.000000
					CHANNELS 3 Zrotation Yrotation Xrotation
					JOINT rtoes
					{
						OFFSET -0.164730 -0.452590 2.363150
						CHANNELS 3 Zrotation Yrotation Xrotation
						End Site
						{
							OFFSET 0.000000 0.000000 0.000000
						}
					}
				}
			}
		}
	}
	JOINT lowerback
	{
		OFFSET 0.000000 0.000000 0.000000
		CHANNELS 3 Zrotation Yrotation Xrotation
		JOINT upperback
		{
			OFFSET 0.028270 2.035590 -0.193380
			CHANNELS 3 Zrotation Yrotation Xrotation
			JOINT thorax
			{
				OFFSET 0.056720 2.048850 -0.042750
				CHANNELS 3 Zrotation Yrotation Xrotation
				JOINT lowerneck
				{
					OFFSET 0.000000 0.000000 0.000000
					CHANNELS 3 Zrotation Yrotation Xrotation
					JOINT upperneck
					{
						OFFSET -0.054170 1.746240 0.172020
						CHANNELS 3 Zrotation Yrotation Xrotation
						JOINT head
						{
							OFFSET 0.104070 1.761360 -0.123970
							CHANNELS 3 Zrotation Yrotation Xrotation
							End Site
							{
								OFFSET 0.000000 0.000000 0.000000
							}
						}
					}
				}
				JOINT lclavicle
				{
					OFFSET 0.000000 0.000000 0.000000
					CHANNELS 3 Zrotation Yrotation Xrotation
					JOINT lhumerus
					{
						OFFSET 3.362410 1.200890 -0.311210
						CHANNELS 3 Zrotation Yrotation Xrotation
						JOINT lradius
						{
							OFFSET 4.983000 -0.000000 -0.000000
							CHANNELS 3 Zrotation Yrotation Xrotation
							JOINT lwrist
							{
								OFFSET 3.483560 -0.000000 -0.000000
								CHANNELS 3 Zrotation Yrotation Xrotation
								JOINT lhand
								{
									OFFSET 0.000000 0.000000 0.000000
									CHANNELS 3 Zrotation Yrotation Xrotation
									JOINT lfingers
									{
										OFFSET 0.715260 -0.000000 -0.000000
										CHANNELS 3 Zrotation Yrotation Xrotation
										End Site
										{
											OFFSET 0.000000 0.000000 0.000000
										}
									}
								}
								JOINT lthumb
								{
									OFFSET 0.000000 0.000000 0.000000
									CHANNELS 3 Zrotation Yrotation Xrotation
									End Site
									{
										OFFSET 0.000000 0.000000 0.000000
									}
								}
							}
						}
					}
				}
				JOINT rclavicle
				{
					OFFSET 0.000000 0.000000 0.000000
					CHANNELS 3 Zrotation Yrotation Xrotation
					JOINT rhumerus
					{
						OFFSET -3.136600 1.374050 -0.404650
						CHANNELS 3 Zrotation Yrotation Xrotation
						JOINT rradius
						{
							OFFSET -5.241900 -0.000000 -0.000000
							CHANNELS 3 Zrotation Yrotation Xrotation
							JOINT rwrist
							{
								OFFSET -3.444170 -0.000000 -0.000000
								CHANNELS 3 Zrotation Yrotation Xrotation
								JOINT rhand
								{
									OFFSET 0.000000 0.000000 0.000000
									CHANNELS 3 Zrotation Yrotation Xrotation
									JOINT rfingers
									{
										OFFSET -0.622530 -0.000000 -0.000000
										CHANNELS 3 Zrotation Yrotation Xrotation
										End Site
										{
											OFFSET 0.000000 0.000000 0.000000
										}
									}
								}
								JOINT rthumb
								{
									OFFSET 0.000000 0.000000 0.000000
									CHANNELS 3 Zrotation Yrotation Xrotation
									End Site
									{
										OFFSET 0.000000 0.000000 0.000000
									}
								}
							}
						}
					}
				}
			}
		}
	}
}
MOTION
Frames: 10
Frame Time: 0.008333
0.256242 18.045288 2.107298 -175.267808 -12.433196 165.376362 7.537009 7.690266 2.361654 -17.632132 1.255964 5.977702 -0.463919 3.235281 17.934771 2.098130 -2.725552 20.509891 0.743900 -5.509500 -15.367600 -9.913953 -7.767464 -0.086018 31.454214 -3.921990 8.544672 -1.862944 -6.026201 25.585727 6.918712 -21.948930 -3.217806 -0.073900 1.753400 -4.824500 2.984424 -1.891725 11.560078 1.287419 -3.285950 0.144555 2.605439 -2.759250 10.314603 -7.615280 -6.328875 -14.679149 8.035429 -8.501524 1.318477 4.271600 -3.833400 2.237800 2.243321 0.108927 3.250941 -77.667292 -32.140870 67.886078 104.834109 -54.947801 -62.803009 -2.777937 1.444514 -85.248433 25.539174 -9.894908 -5.918700 -7.125000 0.000000 0.000000 -2.036200 15.518900 1.418100 -2.060351 0.585975 2.922320 78.116685 14.035791 67.912541 -115.446013 50.286889 -70.687821 0.076657 -4.501910 8.749533 -34.738360 3.406458 -6.312400 7.125000 0.000000 0.000000 -6.253200 -19.159100 -3.877600 
0.255113 18.044160 2.102988 -175.248241 -12.464896 165.361872 7.536348 7.689603 2.363057 -17.616922 1.223942 6.010037 -0.464348 3.233691 17.932816 2.097509 -2.727665 20.492991 0.744000 -5.509800 -15.368400 -9.915017 -7.770882 -0.088979 31.446106 -4.007918 8.542779 -1.866261 -6.028966 25.597580 6.909104 -21.921479 -3.192187 -0.077900 1.800800 -4.955500 3.029839 -1.902186 11.554656 1.290012 -3.298782 0.144342 2.571599 -2.760478 10.342738 -7.589543 -6.330511 -14.743774 8.018577 -8.493017 1.363593 4.251400 -3.829400 2.283500 2.283383 0.117626 3.253491 -78.239277 -32.186856 68.068236 104.932405 -54.981570 -62.713674 -2.784477 1.353696 -85.613976 24.500805 -9.138885 -5.315100 -7.125000 0.000000 0.000000 -2.658700 16.506300 1.795700 -2.107211 0.590885 2.894923 78.641360 13.546703 67.607285 -115.416632 50.417121 -70.385161 -0.161459 -4.520465 9.869615 -33.931601 5.093836 -7.231600 7.125000 0.000000 0.000000 -5.373700 -17.258500 -3.553200 
0.254600 18.044160 2.097960 -175.269817 -12.494515 165.354871 7.535773 7.687815 2.363047 -17.645485 1.194099 6.054927 -0.464742 3.232664 17.932644 2.091444 -2.716122 20.462407 0.744400 -5.511200 -15.372600 -9.914394 -7.774303 -0.090688 31.391447 -4.079600 8.538203 -1.869626 -6.029644 25.606583 6.892130 -21.871516 -3.174399 -0.078900 1.811800 -4.985900 3.009603 -1.912671 11.546317 1.292984 -3.317208 0.143987 2.581150 -2.773784 10.367125 -7.598341 -6.325102 -14.806060 8.003372 -8.469188 1.413317 4.239900 -3.816900 2.330200 2.300771 0.111910 3.252126 -78.524473 -32.127109 68.008813 105.225750 -54.931166 -62.952198 -2.774225 1.281668 -85.695038 23.874844 -8.562760 -4.917400 -7.125000 0.000000 0.000000 -3.019600 17.237100 1.992000 -2.135187 0.601090 2.869981 78.996995 13.023001 67.022700 -115.559626 50.432555 -70.492067 -0.344802 -4.500374 10.588933 -33.621942 6.512999 -8.041000 7.125000 0.000000 0.000000 -4.891400 -15.647400 -3.403400 
0.254087 18.043852 2.093239 -175.270046 -12.526961 165.359812 7.535338 7.685188 2.364203 -17.664187 1.123288 6.083438 -0.465442 3.235036 17.932870 2.075951 -2.670009 20.424659 0.748100 -5.524800 -15.411700 -9.914636 -7.775923 -0.091337 31.377305 -4.119768 8.533763 -1.871149 -6.030691 25.614227 6.884973 -21.850629 -3.189679 -0.078900 1.812300 -4.987200 3.020810 -1.919888 11.519234 1.294864 -3.327320 0.143401 2.574722 -2.776953 10.384823 -7.594362 -6.331462 -14.856925 7.990747 -8.465391 1.459510 4.229700 -3.813900 2.374400 2.298573 0.095739 3.245630 -78.525476 -31.985774 67.894915 105.658939 -54.818567 -63.412590 -2.746011 1.234292 -85.412157 23.563917 -8.172498 -4.679800 -7.125000 0.000000 0.000000 -3.178900 17.730900 2.063000 -2.142731 0.621496 2.849728 79.142627 12.508270 66.298252 -115.949262 50.302475 -71.055540 -0.433271 -4.453497 10.882212 -33.581810 7.405326 -8.559400 7.125000 0.000000 0.000000 -4.701200 -14.659100 -3.370000 
0.253266 18.043236 2.088314 -175.277983 -12.557171 165.337487 7.535708 7.685979 2.365062 -17.670684 1.115800 6.129572 -0.465162 3.232667 17.932736 2.074589 -2.673679 20.398228 0.753700 -5.544800 -15.469200 -9.914531 -7.777584 -0.093383 31.343079 -4.179606 8.552434 -1.874473 -6.031357 25.625303 6.875468 -21.822041 -3.193725 -0.080000 1.824100 -5.019800 3.015552 -1.938383 11.522982 1.296885 -3.354505 0.144231 2.585245 -2.794737 10.405743 -7.592472 -6.333325 -14.930975 7.968992 -8.448000 1.527930 4.210800 -3.804400 2.437800 2.274945 0.075349 3.230733 -78.312860 -31.746611 67.699716 106.237892 -54.652119 -64.075492 -2.696742 1.205267 -84.710385 23.398420 -7.880144 -4.514900 -7.125000 0.000000 0.000000 -3.241500 18.113700 2.076400 -2.121688 0.640320 2.836349 78.981281 12.180631 65.648785 -116.465868 50.090435 -71.869110 -0.420288 -4.387398 10.786281 -33.534807 7.594596 -8.605200 7.125000 0.000000 0.000000 -4.647500 -14.550400 -3.342000 
0.253163 18.042415 2.083285 -175.293259 -12.578242 165.329656 7.537152 7.685987 2.365624 -17.685746 1.102941 6.162943 -0.464742 3.232590 17.937585 2.074840 -2.680915 20.374500 0.753700 -5.545000 -15.469700 -9.912151 -7.779406 -0.094840 31.300172 -4.245796 8.555096 -1.877216 -6.031513 25.633695 6.858688 -21.772288 -3.185136 -0.080500 1.830500 -5.037500 2.998130 -1.945917 11.511848 1.295897 -3.368292 0.145093 2.589217 -2.801554 10.419367 -7.572960 -6.331850 -14.984410 7.946209 -8.433237 1.586139 4.188000 -3.797100 2.486000 2.237646 0.049273 3.213018 -77.911255 -31.462057 67.552884 106.870300 -54.463034 -64.801966 -2.630875 1.190456 -83.715940 23.297603 -7.684861 -4.400000 -7.125000 0.000000 0.000000 -3.264900 18.396000 2.071100 -2.076066 0.662940 2.833580 78.548100 11.879352 64.988102 -117.088508 49.834776 -72.865688 -0.349804 -4.300209 10.471939 -33.362080 7.329260 -8.299100 7.125000 0.000000 0.000000 -4.596700 -15.047400 -3.256400 
0.253163 18.041799 2.078257 -175.292340 -12.602216 165.329291 7.537223 7.685886 2.366508 -17.687354 1.078259 6.182310 -0.464506 3.233979 17.942805 2.075383 -2.685911 20.353916 0.753800 -5.545200 -15.470500 -9.912222 -7.779423 -0.096227 31.293440 -4.271361 8.558099 -1.879106 -6.033499 25.643301 6.856827 -21.766916 -3.201992 -0.081200 1.837500 -5.056900 2.989181 -1.964333 11.483606 1.297224 -3.396636 0.148249 2.616584 -2.820460 10.451236 -7.567828 -6.330262 -15.049772 7.920618 -8.417780 1.632573 4.166700 -3.789900 2.526400 2.182940 0.024286 3.192937 -77.359801 -31.140205 67.412654 107.539846 -54.267966 -65.550958 -2.544977 1.173609 -82.487931 23.067245 -7.484345 -4.248600 -7.125000 0.000000 0.000000 -3.374100 18.718700 2.116500 -2.002703 0.679869 2.840089 77.833691 11.624899 64.386603 -117.805549 49.561287 -73.987466 -0.251884 -4.183748 10.191291 -32.935907 6.689474 -7.652200 7.125000 0.000000 0.000000 -4.438800 -16.083800 -3.044600 
0.253266 18.041184 2.072408 -175.292064 -12.617516 165.307759 7.539250 7.688053 2.366850 -17.675911 1.092351 6.211948 -0.463385 3.232760 17.949298 2.085306 -2.723017 20.342327 0.756100 -5.553400 -15.494000 -9.909885 -7.780061 -0.099300 31.267052 -4.343663 8.573418 -1.882962 -6.035400 25.660000 6.837802 -21.711042 -3.204737 -0.081400 1.840100 -5.063900 2.994384 -1.976950 11.468619 1.295400 -3.417459 0.152928 2.626466 -2.830423 10.481333 -7.572313 -6.335765 -15.111218 7.909296 -8.411089 1.690108 4.162900 -3.784000 2.578900 2.108299 -0.002964 3.168723 -76.647365 -30.814003 67.342793 108.255280 -54.058559 -66.337738 -2.440918 1.148864 -81.240174 22.724950 -7.329165 -4.085000 -7.125000 0.000000 0.000000 -3.563200 19.026300 2.211200 -1.918571 0.701886 2.855259 76.938618 11.378198 63.714142 -118.553634 49.301334 -75.142445 -0.170349 -4.046346 10.176296 -32.307483 5.965243 -6.892100 7.125000 0.000000 0.000000 -4.144200 -17.276200 -2.733700 
0.253266 18.040055 2.066969 -175.291931 -12.614746 165.298061 7.539950 7.689671 2.367615 -17.669771 1.091511 6.240386 -0.461637 3.234107 17.957789 2.085041 -2.728088 20.313400 0.756200 -5.553900 -15.495500 -9.909728 -7.779872 -0.100567 31.258458 -4.368493 8.586904 -1.885560 -6.037680 25.673143 6.830309 -21.688744 -3.210303 -0.082300 1.850800 -5.093400 2.987081 -1.985074 11.446289 1.295874 -3.430576 0.156527 2.662928 -2.841528 10.495635 -7.569201 -6.320133 -15.130817 7.879442 -8.381556 1.724721 4.142100 -3.770800 2.592700 2.036474 -0.034104 3.148342 -75.893766 -30.474686 67.275651 108.977520 -53.849780 -67.112864 -2.327335 1.121383 -80.062233 22.250788 -7.235328 -3.915000 -7.125000 0.000000 0.000000 -3.853300 19.293300 2.369100 -1.814336 0.719674 2.879684 75.906230 11.165611 62.938702 -119.202680 49.104906 -76.182468 -0.135896 -3.897914 10.558855 -31.654617 5.387819 -6.235100 7.125000 0.000000 0.000000 -3.788800 -18.293000 -2.413400 
0.253266 18.038721 2.061427 -175.289516 -12.612968 165.280074 7.542947 7.692304 2.366823 -17.658755 1.115454 6.269316 -0.459435 3.234297 17.967489 2.090896 -2.754898 20.283382 0.771000 -5.606600 -15.647000 -9.907835 -7.779094 -0.103100 31.251686 -4.396928 8.614727 -1.888225 -6.039317 25.685817 6.822903 -21.666716 -3.217273 -0.080700 1.832100 -5.041900 3.003417 -1.991991 11.428450 1.292709 -3.442996 0.162532 2.662473 -2.844025 10.516122 -7.572674 -6.321613 -15.144055 7.878012 -8.383139 1.740182 4.149300 -3.769700 2.602600 1.948600 -0.060812 3.129089 -75.036666 -30.180810 67.173297 109.629207 -53.663821 -67.826870 -2.206418 1.084675 -79.058270 21.707929 -7.209067 -3.755700 -7.125000 0.000000 0.000000 -4.198000 19.505400 2.562200 -1.715854 0.740099 2.910473 74.869984 10.963336 61.999288 -119.748218 48.957731 -77.098558 -0.162752 -3.757613 11.417602 -31.192549 5.148006 -5.861600 7.125000 0.000000 0.000000 -3.501300 -18.850400 -2.186300 
